#!OML:ASF F:\VICON\USERDATA\INSTALL\rory3\rory3.ASF
:FULLY-SPECIFIED
:DEGREES
4812
root 4.08886 17.8662 -7.09132 -1983.39 58.2294 -177.071
lowerback 12.4335 0.628217 1.7146
upperback 1.63139 1.25197 1.32554
thorax -5.25302 0.641359 0.2081
lowerneck -16.0782 -6.49108 -11.2124
upperneck 29.1427 -7.71419 8.05494
head 13.2633 -3.29007 3.87689
rclavicle 7.39852e-014 -3.97569e-015
rhumerus -33.8787 -6.81098 -82.3899
rradius 36.8823
rwrist 1.28935
rhand -18.2581 7.57321
rfingers 7.12502
rthumb 8.02124 -22.2546
lclavicle 7.39852e-014 -3.97569e-015
lhumerus -34.8757 2.91579 85.4453
lradius 28.7393
lwrist -9.26535
lhand -16.4729 24.9044
lfingers 7.12502
lthumb 9.74393 54.659
rfemur -2.41972 0.103599 26.482
rtibia 26.781
rfoot -13.6279 -6.94117
rtoes 3.7646
lfemur -17.0693 -3.54453 -15.8216
ltibia 50.7339
lfoot -5.98952 -1.10638
ltoes -1.18337
4813
root 4.18045 17.8588 -7.13654 -1982.94 58.2913 -176.575
lowerback 12.356 0.665889 1.99306
upperback 1.64281 1.34683 1.44978
thorax -5.19428 0.685445 0.16676
lowerneck -16.075 -6.49555 -11.2797
upperneck 29.0925 -7.66239 7.93123
head 13.2333 -3.29299 3.84545
rclavicle 6.03684e-014 8.34896e-015
rhumerus -33.7112 -6.29864 -82.3718
rradius 37.2285
rwrist 0.953218
rhand -18.3729 8.16317
rfingers 7.12502
rthumb 7.91047 -21.6688
lclavicle 6.03684e-014 8.34896e-015
lhumerus -34.9616 2.95097 85.5427
lradius 28.5533
lwrist -9.29774
lhand -16.6805 24.7736
lfingers 7.12502
lthumb 9.54359 54.5375
rfemur -2.02971 0.195875 26.8426
rtibia 26.6984
rfoot -14.1602 -7.00079
rtoes 5.62146
lfemur -17.4007 -3.42692 -15.5286
ltibia 49.2082
lfoot -6.34269 -0.592882
ltoes 0.837752
4814
root 4.26743 17.8487 -7.18098 -1982.64 58.3115 -176.29
lowerback 12.3137 0.702176 2.21608
upperback 1.61968 1.4262 1.4862
thorax -5.1901 0.720442 0.0667086
lowerneck -16.052 -6.5029 -11.2803
upperneck 29.0855 -7.66662 7.90993
head 13.225 -3.29758 3.83647
rclavicle -2.3382e-014 1.03368e-014
rhumerus -33.6631 -5.86179 -82.3395
rradius 37.6616
rwrist 0.7269
rhand -18.6244 8.50862
rfingers 7.12502
rthumb 7.66765 -21.3324
lclavicle -2.3382e-014 1.03368e-014
lhumerus -35.0981 3.1992 85.4963
lradius 28.4149
lwrist -9.64648
lhand -16.8609 24.5861
lfingers 7.12502
lthumb 9.36958 54.3579
rfemur -1.61041 0.439998 27.1099
rtibia 26.4953
rfoot -14.1772 -7.31889
rtoes 4.69859
lfemur -17.7337 -3.30745 -15.3907
ltibia 47.5587
lfoot -6.53995 -0.107313
ltoes 0.602469
4815
root 4.35733 17.8386 -7.22726 -1982.43 58.3388 -176.131
lowerback 12.2601 0.739615 2.39708
upperback 1.54855 1.49577 1.46795
thorax -5.22931 0.748744 -0.0653156
lowerneck -15.9215 -6.50848 -11.3238
upperneck 29.0661 -7.6946 7.99063
head 13.1988 -3.30485 3.87348
rclavicle 4.94725e-014 1.98785e-015
rhumerus -33.6568 -5.4593 -82.3894
rradius 38.0339
rwrist 0.509672
rhand -18.6583 8.485
rfingers 7.12502
rthumb 7.63499 -21.3572
lclavicle 4.94725e-014 1.98785e-015
lhumerus -35.2906 3.33061 85.4327
lradius 28.3071
lwrist -9.67855
lhand -17.2126 24.7421
lfingers 7.12502
lthumb 9.03018 54.5289
rfemur -1.2029 0.621464 27.2759
rtibia 26.2577
rfoot -14.1438 -7.5671
rtoes 3.62949
lfemur -18.0393 -3.26599 -15.3239
ltibia 45.7786
lfoot -6.78532 0.399414
ltoes -1.02078
4816
root 4.44973 17.8322 -7.27606 -1982.23 58.3553 -175.91
lowerback 12.2676 0.778441 2.61305
upperback 1.47229 1.57742 1.48325
thorax -5.30721 0.782395 -0.184976
lowerneck -15.7827 -6.54969 -11.4915
upperneck 29.0917 -7.74577 8.09841
head 13.201 -3.33187 3.94029
rclavicle 6.34372e-014 4.37326e-015
rhumerus -33.6521 -5.18381 -82.4021
rradius 38.3101
rwrist 0.2841
rhand -18.5296 8.44616
rfingers 7.12502
rthumb 7.7592 -21.3915
lclavicle 6.34372e-014 4.37326e-015
lhumerus -35.5318 3.3254 85.424
lradius 28.2121
lwrist -9.61801
lhand -17.0302 24.7839
lfingers 7.12502
lthumb 9.20619 54.5629
rfemur -0.703107 0.599846 27.4242
rtibia 25.9731
rfoot -14.3476 -7.48823
rtoes 4.40049
lfemur -18.1831 -3.41801 -15.2254
ltibia 43.8647
lfoot -7.06451 0.863247
ltoes -3.52462
4817
root 4.5393 17.828 -7.32558 -1982.17 58.3309 -175.895
lowerback 12.2058 0.82875 2.79491
upperback 1.42954 1.66134 1.42743
thorax -5.30938 0.817873 -0.358659
lowerneck -15.6944 -6.6018 -11.5654
upperneck 29.0991 -7.83708 8.20405
head 13.2062 -3.36602 3.98174
rclavicle 1.33385e-013 8.34896e-015
rhumerus -33.5505 -5.33873 -82.3373
rradius 38.4417
rwrist 0.470019
rhand -18.4875 8.89621
rfingers 7.12502
rthumb 7.79982 -20.9399
lclavicle 1.33385e-013 8.34896e-015
lhumerus -35.8096 3.66734 85.192
lradius 28.2922
lwrist -10.1726
lhand -16.5358 24.736
lfingers 7.12502
lthumb 9.68323 54.4934
rfemur -0.214792 0.411096 27.4154
rtibia 25.659
rfoot -14.5261 -7.28254
rtoes 5.07517
lfemur -18.3052 -3.69988 -15.2322
ltibia 41.8442
lfoot -7.11349 1.13809
ltoes -5.10606
4818
root 4.62572 17.8252 -7.37249 -1981.97 58.2664 -175.862
lowerback 12.0162 0.822167 2.96467
upperback 1.39518 1.6609 1.36052
thorax -5.23335 0.812834 -0.520478
lowerneck -15.7177 -6.59085 -11.5144
upperneck 29.0712 -7.852 8.26043
head 13.201 -3.35946 3.99187
rclavicle 6.07039e-014 -2.10712e-014
rhumerus -33.4516 -5.13095 -82.4245
rradius 38.848
rwrist 0.460297
rhand -18.3153 9.05604
rfingers 7.12502
rthumb 7.96598 -20.7739
lclavicle 6.07039e-014 -2.10712e-014
lhumerus -35.9591 4.02462 84.945
lradius 28.2893
lwrist -10.5499
lhand -16.4937 24.6272
lfingers 7.12502
lthumb 9.72381 54.3827
rfemur 0.0962458 0.209888 27.4359
rtibia 25.3837
rfoot -14.6863 -7.27302
rtoes 4.59434
lfemur -18.5593 -3.97939 -15.196
ltibia 39.7269
lfoot -6.90801 1.24012
ltoes -5.90771
4819
root 4.71515 17.8209 -7.41883 -1981.7 58.1906 -175.744
lowerback 11.849 0.759131 3.05109
upperback 1.34277 1.5808 1.37053
thorax -5.19586 0.770726 -0.542847
lowerneck -15.8109 -6.55675 -11.4686
upperneck 29.1073 -7.78397 8.17765
head 13.2207 -3.33408 3.96204
rclavicle 3.94091e-014 -5.56597e-015
rhumerus -33.3635 -4.61021 -82.563
rradius 39.2574
rwrist 0.233707
rhand -17.9606 9.1843
rfingers 7.12502
rthumb 8.30841 -20.6323
lclavicle 3.94091e-014 -5.56597e-015
lhumerus -36.0738 4.28102 84.8319
lradius 28.1358
lwrist -10.4328
lhand -16.9252 24.6954
lfingers 7.12502
lthumb 9.30749 54.4699
rfemur 0.404395 0.0685734 27.5433
rtibia 25.1226
rfoot -14.8048 -7.4066
rtoes 3.47303
lfemur -18.7575 -4.23103 -15.1024
ltibia 37.5407
lfoot -6.69166 1.05854
ltoes -6.63111
4820
root 4.80693 17.8151 -7.46867 -1981.78 58.1676 -175.958
lowerback 11.7348 0.766967 3.01213
upperback 1.29052 1.57477 1.30589
thorax -5.1865 0.765797 -0.585746
lowerneck -15.893 -6.57532 -11.3502
upperneck 29.1796 -7.78959 8.01556
head 13.2552 -3.34202 3.87651
rclavicle -3.30355e-014 2.38542e-015
rhumerus -33.2814 -4.62828 -82.5662
rradius 39.4192
rwrist 0.508843
rhand -18.0119 9.49993
rfingers 7.12502
rthumb 8.25883 -20.3186
lclavicle -3.30355e-014 2.38542e-015
lhumerus -36.2803 4.58211 84.6505
lradius 28.0425
lwrist -10.4682
lhand -17.0968 24.8398
lfingers 7.12502
lthumb 9.14191 54.6217
rfemur 0.820134 0.0897608 27.4606
rtibia 24.859
rfoot -14.9419 -7.50565
rtoes 2.9459
lfemur -18.8052 -4.64184 -15.1994
ltibia 35.3203
lfoot -6.49693 0.88526
ltoes -6.6407
4821
root 4.89773 17.8111 -7.52009 -1981.78 58.2079 -176.088
lowerback 11.6387 0.83117 2.99317
upperback 1.20906 1.6497 1.27862
thorax -5.21603 0.79975 -0.614158
lowerneck -15.9317 -6.61546 -11.3327
upperneck 29.3048 -7.83495 7.97634
head 13.3194 -3.36076 3.85382
rclavicle -4.87022e-014 1.51076e-014
rhumerus -33.338 -4.53223 -82.5076
rradius 39.7021
rwrist 0.50985
rhand -18.134 9.63126
rfingers 7.12502
rthumb 8.14104 -20.1919
lclavicle -4.87022e-014 1.51076e-014
lhumerus -36.5901 4.66032 84.5507
lradius 28.0219
lwrist -10.5986
lhand -16.8033 25.0046
lfingers 7.12502
lthumb 9.42513 54.7739
rfemur 1.19046 0.0833978 27.3865
rtibia 24.6287
rfoot -15.1619 -7.56427
rtoes 2.72483
lfemur -18.8223 -5.28048 -15.1904
ltibia 33.0717
lfoot -6.35178 0.845259
ltoes -6.21547
4822
root 4.98924 17.8045 -7.57219 -1981.69 58.1913 -176.091
lowerback 11.491 0.852057 3.01993
upperback 1.1781 1.67316 1.27677
thorax -5.16473 0.810313 -0.631944
lowerneck -15.9804 -6.61601 -11.3375
upperneck 29.3714 -7.83031 7.98167
head 13.358 -3.35596 3.85933
rclavicle 4.92986e-014 -4.77083e-015
rhumerus -33.3578 -4.41077 -82.4635
rradius 40.0559
rwrist 0.365944
rhand -18.0506 9.65185
rfingers 7.12502
rthumb 8.2215 -20.1682
lclavicle 4.92986e-014 -4.77083e-015
lhumerus -36.7459 4.50736 84.5699
lradius 27.9119
lwrist -10.3086
lhand -16.8662 24.9543
lfingers 7.12502
lthumb 9.36446 54.7263
rfemur 1.56445 -0.126856 27.3448
rtibia 24.4215
rfoot -15.4613 -7.5205
rtoes 2.26734
lfemur -18.8133 -5.8806 -15.0728
ltibia 30.8149
lfoot -6.23095 0.456315
ltoes -5.52919
4823
root 5.08268 17.8011 -7.62348 -1981.59 58.2441 -176.021
lowerback 11.3325 0.844017 3.05786
upperback 1.2076 1.66185 1.30666
thorax -5.04567 0.806576 -0.61661
lowerneck -16.0309 -6.60554 -11.3916
upperneck 29.3459 -7.79282 7.96867
head 13.3558 -3.34841 3.86774
rclavicle -4.00675e-014 -1.78906e-014
rhumerus -33.1959 -4.6001 -82.3443
rradius 40.1878
rwrist 0.619467
rhand -17.9075 9.87457
rfingers 7.12502
rthumb 8.35961 -19.94
lclavicle -4.00675e-014 -1.78906e-014
lhumerus -36.7826 4.79015 84.4973
lradius 27.6962
lwrist -10.1626
lhand -17.187 24.736
lfingers 7.12502
lthumb 9.05488 54.5216
rfemur 2.02576 -0.120098 27.3803
rtibia 24.1905
rfoot -15.6982 -7.39924
rtoes 2.50893
lfemur -18.7399 -6.33459 -14.9083
ltibia 28.6328
lfoot -6.19677 -0.0799607
ltoes -4.45208
4824
root 5.17568 17.803 -7.67329 -1981.41 58.3894 -175.863
lowerback 11.2172 0.858603 3.10287
upperback 1.2052 1.68588 1.37359
thorax -4.98406 0.819238 -0.573214
lowerneck -15.999 -6.55888 -11.4661
upperneck 29.246 -7.72869 8.03773
head 13.3058 -3.32287 3.91646
rclavicle 4.84289e-014 -2.10712e-014
rhumerus -33.0758 -4.69692 -82.2097
rradius 40.2299
rwrist 0.86899
rhand -17.8975 10.0051
rfingers 7.12502
rthumb 8.3693 -19.8091
lclavicle 4.84289e-014 -2.10712e-014
lhumerus -36.9507 5.32645 84.3545
lradius 27.5994
lwrist -10.2864
lhand -16.9738 24.6271
lfingers 7.12502
lthumb 9.26061 54.4038
rfemur 2.48037 0.180689 27.5401
rtibia 23.9542
rfoot -15.8168 -7.47783
rtoes 2.33391
lfemur -18.6762 -6.98001 -14.639
ltibia 26.5726
lfoot -6.25359 -0.311585
ltoes -2.80877
